<svg width="200" height="120" viewBox="0 0 200 120" fill="none" xmlns="http://www.w3.org/2000/svg">
<rect x="2.5" y="2.5" width="195" height="115" stroke="#F0F1F4" stroke-width="5"/>
<path d="M33.32 80H19.28L38.36 29.6H52.76L71.84 80H57.8L54.56 71H36.56L33.32 80ZM39.8 61.64H51.32L45.56 44.72L39.8 61.64ZM117.231 78.92C105.999 80.12 95.6789 80.72 86.2709 80.72C81.5669 80.72 78.1109 79.616 75.9029 77.408C73.6949 75.2 72.5909 71.744 72.5909 67.04V44C72.5909 38.96 73.7189 35.312 75.9749 33.056C78.2789 30.752 81.9509 29.6 86.9909 29.6H112.911V39.68H89.8709C86.9909 39.68 85.5509 41.12 85.5509 44V67.04C85.5509 68.144 85.8629 69.032 86.4869 69.704C87.1589 70.328 88.0469 70.64 89.1509 70.64C94.6709 70.64 99.7109 70.52 104.271 70.28V59.84H94.9109V51.2H117.231V78.92ZM122.933 69.56C136.085 70.28 144.989 70.64 149.645 70.64C150.749 70.64 151.613 70.328 152.237 69.704C152.909 69.032 153.245 68.144 153.245 67.04V60.56H136.685C131.645 60.56 127.973 59.432 125.669 57.176C123.413 54.872 122.285 51.2 122.285 46.16V44C122.285 38.96 123.413 35.312 125.669 33.056C127.973 30.752 131.645 29.6 136.685 29.6H161.957V39.68H139.565C136.685 39.68 135.245 41.12 135.245 44V45.44C135.245 48.32 136.685 49.76 139.565 49.76H152.525C157.229 49.76 160.685 50.864 162.893 53.072C165.101 55.28 166.205 58.736 166.205 63.44V67.04C166.205 71.744 165.101 75.2 162.893 77.408C160.685 79.616 157.229 80.72 152.525 80.72C150.077 80.72 147.485 80.672 144.749 80.576L138.125 80.288C133.229 80.048 128.165 79.712 122.933 79.28V69.56Z" fill="#F0F1F4"/>
<path d="M21.22 101H18.88L22.06 92.6H24.46L27.64 101H25.3L24.76 99.5H21.76L21.22 101ZM22.3 97.94H24.22L23.26 95.12L22.3 97.94ZM33.8163 94.64H36.0362L33.6363 101H31.2363L28.8363 94.64H31.0563L32.4363 98.96L33.8163 94.64ZM44.68 99.2C44.68 99.8 44.508 100.272 44.164 100.616C43.828 100.952 43.36 101.12 42.76 101.12H40C39.4 101.12 38.928 100.952 38.584 100.616C38.248 100.272 38.08 99.8 38.08 99.2V96.44C38.08 95.84 38.248 95.372 38.584 95.036C38.928 94.692 39.4 94.52 40 94.52H42.76C43.36 94.52 43.828 94.692 44.164 95.036C44.508 95.372 44.68 95.84 44.68 96.44V99.2ZM42.58 96.62C42.58 96.3 42.42 96.14 42.1 96.14H40.66C40.34 96.14 40.18 96.3 40.18 96.62V99.02C40.18 99.34 40.34 99.5 40.66 99.5H42.1C42.42 99.5 42.58 99.34 42.58 99.02V96.62ZM51.9986 101C51.2226 101.08 50.4626 101.12 49.7186 101.12C49.1746 101.12 48.7386 100.956 48.4106 100.628C48.0826 100.3 47.9186 99.864 47.9186 99.32V96.26H47.1986V94.64H47.9186L48.1586 93.2H50.0186V94.64H51.5186V96.26H50.0186V99.02C50.0186 99.14 50.0586 99.24 50.1386 99.32C50.2186 99.4 50.3186 99.44 50.4386 99.44H51.9986V101ZM56.7438 94.76C57.5198 94.6 58.1998 94.52 58.7838 94.52H59.3238C59.8678 94.52 60.3038 94.684 60.6318 95.012C60.9598 95.34 61.1238 95.776 61.1238 96.32V101H59.0238V96.56C59.0238 96.44 58.9838 96.34 58.9038 96.26C58.8238 96.18 58.7238 96.14 58.6038 96.14H58.1838C57.8798 96.14 57.5998 96.156 57.3438 96.188C57.0958 96.22 56.8958 96.244 56.7438 96.26V101H54.6438V92.6H56.7438V94.76ZM63.7623 92.6H65.9223V94.28L65.0823 95.6H64.0023L64.4823 94.4H63.7623V92.6ZM68.4452 99.32C70.0692 99.44 71.3492 99.5 72.2852 99.5C72.4052 99.5 72.5052 99.46 72.5852 99.38C72.6652 99.3 72.7052 99.2 72.7052 99.08V98.66H70.1252C69.5812 98.66 69.1452 98.496 68.8172 98.168C68.4892 97.84 68.3252 97.404 68.3252 96.86V96.44C68.3252 95.896 68.4892 95.46 68.8172 95.132C69.1452 94.804 69.5812 94.64 70.1252 94.64H74.2052V96.2H70.8452C70.7252 96.2 70.6252 96.24 70.5452 96.32C70.4652 96.4 70.4252 96.5 70.4252 96.62C70.4252 96.74 70.4652 96.84 70.5452 96.92C70.6252 97 70.7252 97.04 70.8452 97.04H73.0052C73.5492 97.04 73.9852 97.204 74.3132 97.532C74.6412 97.86 74.8052 98.296 74.8052 98.84V99.32C74.8052 99.864 74.6412 100.3 74.3132 100.628C73.9852 100.956 73.5492 101.12 73.0052 101.12C71.5892 101.12 70.0692 101.04 68.4452 100.88V99.32ZM90.1638 100.82C88.2918 101.02 86.5718 101.12 85.0038 101.12C84.2198 101.12 83.6438 100.936 83.2758 100.568C82.9078 100.2 82.7238 99.624 82.7238 98.84V95C82.7238 94.16 82.9118 93.552 83.2878 93.176C83.6718 92.792 84.2838 92.6 85.1238 92.6H89.4438V94.28H85.6038C85.1238 94.28 84.8838 94.52 84.8838 95V98.84C84.8838 99.024 84.9358 99.172 85.0398 99.284C85.1518 99.388 85.2998 99.44 85.4838 99.44C86.4038 99.44 87.2438 99.42 88.0038 99.38V97.64H86.4438V96.2H90.1638V100.82ZM95.5661 99.44C95.9901 99.44 96.4701 99.36 97.0061 99.2V98.48H95.2661C95.1461 98.48 95.0461 98.52 94.9661 98.6C94.8861 98.68 94.8461 98.78 94.8461 98.9V99.02C94.8461 99.14 94.8861 99.24 94.9661 99.32C95.0461 99.4 95.1461 99.44 95.2661 99.44H95.5661ZM93.3461 94.76C94.8101 94.6 96.1301 94.52 97.3061 94.52C97.8501 94.52 98.2861 94.684 98.6141 95.012C98.9421 95.34 99.1061 95.776 99.1061 96.32V101H97.2461L97.1261 100.4C96.7501 100.648 96.3621 100.832 95.9621 100.952C95.5701 101.064 95.2381 101.12 94.9661 101.12H94.5461C94.0021 101.12 93.5661 100.956 93.2381 100.628C92.9101 100.3 92.7461 99.864 92.7461 99.32V98.78C92.7461 98.236 92.9101 97.8 93.2381 97.472C93.5661 97.144 94.0021 96.98 94.5461 96.98H97.0061V96.5C97.0061 96.38 96.9661 96.28 96.8861 96.2C96.8061 96.12 96.7061 96.08 96.5861 96.08C96.0661 96.08 95.4901 96.104 94.8581 96.152C94.2341 96.2 93.7301 96.236 93.3461 96.26V94.76ZM106.243 94.52C106.891 94.52 107.391 94.76 107.743 95.24C108.111 94.992 108.507 94.812 108.931 94.7C109.363 94.58 109.747 94.52 110.083 94.52H110.203C110.747 94.52 111.183 94.684 111.511 95.012C111.839 95.34 112.003 95.776 112.003 96.32V101H109.903V96.68C109.903 96.56 109.863 96.46 109.783 96.38C109.703 96.3 109.603 96.26 109.483 96.26H109.423C109.063 96.26 108.603 96.34 108.043 96.5V101H105.943V96.68C105.943 96.56 105.903 96.46 105.823 96.38C105.743 96.3 105.643 96.26 105.523 96.26H105.463C105.103 96.26 104.643 96.34 104.083 96.5V101H101.983V94.64H103.843L103.963 95.24C104.339 94.992 104.723 94.812 105.115 94.7C105.515 94.58 105.851 94.52 106.123 94.52H106.243ZM117.34 96.02C117.02 96.02 116.86 96.18 116.86 96.5V97.16H118.9V96.5C118.9 96.18 118.74 96.02 118.42 96.02H117.34ZM120.76 100.88C119.216 101.04 117.816 101.12 116.56 101.12C116.016 101.12 115.58 100.956 115.252 100.628C114.924 100.3 114.76 99.864 114.76 99.32V96.44C114.76 95.84 114.928 95.372 115.264 95.036C115.608 94.692 116.08 94.52 116.68 94.52H119.08C119.68 94.52 120.148 94.692 120.484 95.036C120.828 95.372 121 95.84 121 96.44V98.66H116.86V99.14C116.86 99.26 116.9 99.36 116.98 99.44C117.06 99.52 117.16 99.56 117.28 99.56C118.072 99.56 119.232 99.5 120.76 99.38V100.88ZM129.141 99.26C131.333 99.38 132.817 99.44 133.593 99.44C133.777 99.44 133.921 99.388 134.025 99.284C134.137 99.172 134.193 99.024 134.193 98.84V97.76H131.433C130.593 97.76 129.981 97.572 129.597 97.196C129.221 96.812 129.033 96.2 129.033 95.36V95C129.033 94.16 129.221 93.552 129.597 93.176C129.981 92.792 130.593 92.6 131.433 92.6H135.645V94.28H131.913C131.433 94.28 131.193 94.52 131.193 95V95.24C131.193 95.72 131.433 95.96 131.913 95.96H134.073C134.857 95.96 135.433 96.144 135.801 96.512C136.169 96.88 136.353 97.456 136.353 98.24V98.84C136.353 99.624 136.169 100.2 135.801 100.568C135.433 100.936 134.857 101.12 134.073 101.12C133.665 101.12 133.233 101.112 132.777 101.096L131.673 101.048C130.857 101.008 130.013 100.952 129.141 100.88V99.26ZM141.213 94.76C141.989 94.6 142.669 94.52 143.253 94.52H143.793C144.337 94.52 144.773 94.684 145.101 95.012C145.429 95.34 145.593 95.776 145.593 96.32V101H143.493V96.56C143.493 96.44 143.453 96.34 143.373 96.26C143.293 96.18 143.193 96.14 143.073 96.14H142.653C142.349 96.14 142.069 96.156 141.813 96.188C141.565 96.22 141.365 96.244 141.213 96.26V101H139.113V92.6H141.213V94.76ZM150.931 96.02C150.611 96.02 150.451 96.18 150.451 96.5V97.16H152.491V96.5C152.491 96.18 152.331 96.02 152.011 96.02H150.931ZM154.351 100.88C152.807 101.04 151.407 101.12 150.151 101.12C149.607 101.12 149.171 100.956 148.843 100.628C148.515 100.3 148.351 99.864 148.351 99.32V96.44C148.351 95.84 148.519 95.372 148.855 95.036C149.199 94.692 149.671 94.52 150.271 94.52H152.671C153.271 94.52 153.739 94.692 154.075 95.036C154.419 95.372 154.591 95.84 154.591 96.44V98.66H150.451V99.14C150.451 99.26 150.491 99.36 150.571 99.44C150.651 99.52 150.751 99.56 150.871 99.56C151.663 99.56 152.823 99.5 154.351 99.38V100.88ZM160.706 101C160.17 101.08 159.658 101.12 159.17 101.12C158.69 101.12 158.286 100.956 157.958 100.628C157.63 100.3 157.466 99.864 157.466 99.32V92.6H159.566V99.02C159.566 99.14 159.606 99.24 159.686 99.32C159.766 99.4 159.866 99.44 159.986 99.44H160.706V101ZM168.024 94.22C167.792 94.204 167.484 94.18 167.1 94.148C166.716 94.116 166.384 94.1 166.104 94.1C165.824 94.1 165.644 94.14 165.564 94.22C165.484 94.3 165.444 94.4 165.444 94.52V95.12H167.424V96.74H165.444V101H163.344V96.74H162.504V95.12H163.344V94.28C163.344 93.736 163.508 93.3 163.836 92.972C164.164 92.644 164.6 92.48 165.144 92.48C165.632 92.48 166.148 92.496 166.692 92.528C167.236 92.56 167.68 92.584 168.024 92.6V94.22Z" fill="#F0F1F4"/>
</svg>
